####
#
# Obj File Generated by Style3D V0.0.0
#
####
mtllib trampoline-v176.mtl
v 1.00109 0.00984965 0.543368
v 0.981571 0.204935 0.54386
v 0.924688 0.392479 0.543734
v 0.832365 0.56535 0.543873
v 0.708191 0.716958 0.543858
v 0.556593 0.841109 0.543835
v 0.383729 0.933497 0.543806
v 0.19618 0.990371 0.543671
v 0.00109023 1.00985 0.543368
v -0.194003 0.990325 0.543736
v -0.381541 0.93348 0.54364
v -0.554418 0.841147 0.543751
v -0.706018 0.716962 0.543801
v -0.830196 0.565352 0.543776
v -0.922556 0.392491 0.543793
v -0.979408 0.204937 0.543738
v -0.998909 0.00984776 0.543368
v -0.979391 -0.185242 0.543783
v -0.922506 -0.37279 0.543686
v -0.830179 -0.545659 0.543875
v -0.706003 -0.697239 0.543837
v -0.554418 -0.821427 0.543816
v -0.381551 -0.913768 0.543797
v -0.193995 -0.97063 0.543745
v 0.00109212 -0.990151 0.543368
v 0.196176 -0.97065 0.543635
v 0.383733 -0.913775 0.543661
v 0.556589 -0.821406 0.543831
v 0.708197 -0.697266 0.543823
v 0.832394 -0.545662 0.543671
v 0.92474 -0.372793 0.543877
v 0.981592 -0.185242 0.543743
v 0.193494 -0.453122 0.505902
v 0.355955 -0.344685 0.505936
v 0.464388 -0.182228 0.505938
v 0.50254 0.00934038 0.505968
v 0.464372 0.200907 0.505886
v 0.355943 0.363371 0.505898
v 0.193487 0.471804 0.505882
v 0.0019161 0.509959 0.505881
v -0.189649 0.471791 0.505823
v -0.352115 0.363366 0.505831
v -0.46054 0.200903 0.505881
v -0.4987 0.00933848 0.505894
v -0.460531 -0.182228 0.505827
v -0.352103 -0.344689 0.505842
v -0.189647 -0.453123 0.505882
v 0.00192373 -0.49128 0.505963
v -0.581422 0.488221 0.520636
v -0.720112 0.228648 0.520782
v -0.217724 0.731187 0.520561
v -0.720149 -0.208944 0.520671
v -0.581625 -0.468646 0.520713
v -0.354418 -0.655155 0.520619
v -0.0727296 -0.740848 0.520859
v 0.145682 0.731736 0.519392
v 0.410958 0.62169 0.519445
v 0.614104 0.418269 0.51934
v 0.723768 0.153006 0.51945
v 0.410726 -0.602634 0.519352
v 0.613872 -0.399432 0.519471
v 0.72368 -0.134297 0.519481
v -0.534641 0.662373 0.527938
v -0.40724 0.535086 0.514587
v -0.375631 0.694059 0.522738
v -0.320783 0.815418 0.530132
v -0.268958 0.59445 0.513335
v -0.114027 0.614595 0.51161
v -0.0360951 0.787983 0.522716
v 0.0253082 0.65227 0.513332
v 0.14786 0.597843 0.511161
v 0.274204 0.666785 0.517724
v 0.272771 0.823356 0.529235
v -0.508102 0.350063 0.511459
v -0.587399 0.242524 0.51281
v -0.638648 0.0894927 0.51342
v -0.667375 0.367313 0.521086
v -0.799285 0.338117 0.530022
v -0.716401 0.49321 0.529979
v -0.637631 -0.0712074 0.513388
v -0.824263 0.073923 0.526624
v -0.648439 0.602435 0.531233
v -0.789169 -0.073746 0.523967
v -0.854603 -0.249755 0.532736
v -0.73978 -0.386237 0.527569
v -0.69027 -0.557679 0.532844
v -0.532075 -0.639914 0.527751
v -0.507742 -0.331157 0.511437
v -0.635853 -0.308194 0.517639
v -0.24395 -0.797801 0.527923
v -0.420602 -0.778968 0.532674
v -0.338437 -0.500113 0.511437
v -0.465662 -0.528083 0.517771
v -0.0865471 -0.880463 0.532886
v 0.08656 -0.8271 0.527784
v -0.117636 -0.59156 0.511648
v -0.223882 -0.668428 0.517903
v 0.554856 0.684382 0.530701
v 0.660172 0.568073 0.529769
v 0.521554 0.528985 0.519284
v 0.332101 0.503556 0.510519
v 0.770829 0.421361 0.53054
v 0.823273 0.273738 0.529642
v 0.680493 0.290422 0.519283
v 0.496035 0.33946 0.510515
v 0.869657 0.0953388 0.530617
v 0.861882 -0.0610692 0.529855
v 0.736381 0.00934909 0.519476
v 0.584627 0.12528 0.510567
v 0.412447 -0.759634 0.53053
v 0.253004 -0.810219 0.529134
v 0.152141 -0.643685 0.514966
v 0.0141979 -0.633443 0.513431
v 0.331971 -0.484659 0.510544
v 0.471256 -0.436382 0.513565
v 0.514253 -0.308038 0.511061
v 0.581887 -0.570602 0.526046
v 0.601837 -0.200426 0.512957
v 0.730357 -0.292386 0.523444
v 0.702034 -0.504305 0.530321
v 0.581576 -0.697297 0.534684
v 0.843193 -0.208291 0.530359
v -0.157289 0.856543 0.529466
v 0.0868915 0.881544 0.530892
v -0.848648 0.202957 0.530516
v -0.913121 -0.0801608 0.535202
v -0.588299 -0.189385 0.512007
v 0.110196 -0.53489 0.508552
v 0.289555 -0.674456 0.519804
v 0.796093 -0.408903 0.533136
v 0.418516 0.774854 0.530497
v -0.118351 0.0899385 0.496283
v -0.287837 -0.0482339 0.499007
v -0.273826 0.193701 0.499959
v -0.0556921 0.299272 0.499052
v 0.19182 0.0470192 0.49696
v -0.407646 -0.072105 0.502701
v -0.371652 0.0598495 0.501376
v -0.323827 -0.180187 0.501291
v -0.071909 -0.178069 0.497109
v -0.196954 -0.28674 0.50068
v -0.0437178 -0.336761 0.500521
v 0.158582 -0.218992 0.498619
v 0.035833 -0.240793 0.49812
v 0.0634028 -0.0695653 0.495871
v 0.11761 -0.344801 0.501161
v -0.0714938 -0.0399726 0.495774
v 0.0227611 0.0674305 0.495618
v 0.128432 0.232382 0.498116
v -0.209861 0.326152 0.501437
v -0.243637 0.0705836 0.498066
v -0.14857 0.213027 0.498057
v -0.0795482 0.419013 0.502743
v 0.0522208 0.383019 0.501325
v 0.353391 0.0792094 0.500812
v 0.3043 -0.0959699 0.499722
v 0.0096083 0.192183 0.496815
v 0.220253 0.335996 0.501876
v 0.313978 0.221686 0.501275
v 0.341909 -0.217893 0.502479
# 160 vertices
vn -0.101263 7.28409e-05 0.99486
vn -0.101498 -0.0210419 0.994613
vn -0.0966914 -0.0399564 0.994512
vn -0.0862407 -0.0584659 0.994557
vn -0.0735985 -0.0735872 0.994569
vn -0.058005 -0.0865064 0.994561
vn -0.0397352 -0.0957553 0.994612
vn -0.0213243 -0.0997363 0.994785
vn 0.00102664 -0.0989137 0.995095
vn 0.0210332 -0.100472 0.994718
vn 0.0393437 -0.0935774 0.994834
vn 0.0547512 -0.0832839 0.995021
vn 0.0731864 -0.0740056 0.994569
vn 0.0860256 -0.056211 0.994706
vn 0.0942139 -0.0396981 0.99476
vn 0.100062 -0.0197906 0.994784
vn 0.0999257 -0.00132476 0.994994
vn 0.101971 0.0212635 0.99456
vn 0.0946157 0.0403613 0.994695
vn 0.086277 0.0569652 0.994641
vn 0.0718354 0.0733764 0.994714
vn 0.058598 0.0851268 0.994646
vn 0.038855 0.0963461 0.994589
vn 0.0212566 0.100073 0.994753
vn -0.000421071 0.099869 0.995
vn -0.0197841 0.099366 0.994854
vn -0.0396962 0.0955055 0.994637
vn -0.0581683 0.0882525 0.994398
vn -0.0741718 0.0722411 0.994625
vn -0.0863203 0.0584233 0.994553
vn -0.096405 0.0385896 0.994594
vn -0.100978 0.0206059 0.994675
vn -0.019689 0.0466108 0.998719
vn -0.0346735 0.0340656 0.998818
vn -0.0460974 0.0176312 0.998781
vn -0.0529199 0.00194222 0.998597
vn -0.047175 -0.0192936 0.9987
vn -0.0359871 -0.035975 0.998704
vn -0.0189412 -0.0454743 0.998786
vn -0.000374713 -0.0487569 0.998811
vn 0.0198755 -0.045351 0.998773
vn 0.0349015 -0.0362643 0.998733
vn 0.0459379 -0.0177101 0.998787
vn 0.049916 -9.76534e-05 0.998753
vn 0.0450335 0.0179757 0.998824
vn 0.0357572 0.035922 0.998715
vn 0.0188435 0.0471946 0.998708
vn 0.00102695 0.0488773 0.998804
vn 0.0568691 -0.0473486 0.997258
vn 0.0712138 -0.0208794 0.997243
vn 0.0209554 -0.0711356 0.997247
vn 0.0728632 0.0211423 0.997118
vn 0.0583092 0.0479796 0.997145
vn 0.0357815 0.0659517 0.997181
vn 0.00665968 0.074952 0.997165
vn -0.0138455 -0.071947 0.997312
vn -0.04036 -0.0606195 0.997345
vn -0.0601785 -0.0401439 0.99738
vn -0.0708973 -0.0133566 0.997394
vn -0.0413331 0.0603051 0.997324
vn -0.0609311 0.0399818 0.997341
vn -0.0693021 0.0126647 0.997515
vn 0.0553523 -0.0698811 0.996018
vn 0.0388004 -0.0490503 0.998042
vn 0.039955 -0.070364 0.996721
vn 0.035866 -0.086703 0.995588
vn 0.0256668 -0.0537304 0.998226
vn 0.010284 -0.056491 0.99835
vn 0.00332831 -0.0787039 0.996893
vn -0.00184283 -0.0609478 0.998139
vn -0.0138454 -0.0535899 0.998467
vn -0.0271275 -0.0637433 0.997598
vn -0.0283926 -0.0863464 0.995861
vn 0.0469424 -0.0319093 0.998388
vn 0.0552778 -0.0209869 0.99825
vn 0.0607326 -0.00730821 0.998127
vn 0.0664617 -0.0350869 0.997172
vn 0.0856791 -0.0360716 0.99567
vn 0.077951 -0.0505263 0.995676
vn 0.0603227 0.00650922 0.998158
vn 0.0850224 -0.00634163 0.996359
vn 0.0705017 -0.0637858 0.99547
vn 0.0798464 0.00811102 0.996774
vn 0.0917152 0.027277 0.995412
vn 0.0787568 0.0425383 0.995986
vn 0.0744044 0.0613015 0.995342
vn 0.0570137 0.068992 0.995987
vn 0.046058 0.0325528 0.998408
vn 0.0618842 0.0315472 0.997585
vn 0.0254594 0.0858949 0.995979
vn 0.0457935 0.0849699 0.995331
vn 0.0311519 0.046946 0.998412
vn 0.045088 0.0511726 0.997671
vn 0.00971091 0.0940067 0.995524
vn -0.00843594 0.0863744 0.996227
vn 0.0114066 0.055396 0.998399
vn 0.0209078 0.0644602 0.997701
vn -0.0591246 -0.0722713 0.995631
vn -0.0709273 -0.0597231 0.995692
vn -0.0498848 -0.0505131 0.997477
vn -0.03114 -0.0453828 0.998484
vn -0.0821519 -0.0447786 0.995613
vn -0.0881504 -0.0273448 0.995732
vn -0.0651438 -0.0268486 0.997515
vn -0.0457189 -0.0304708 0.99849
vn -0.0917038 -0.00966801 0.995739
vn -0.0906304 0.00784413 0.995854
vn -0.0701022 0.000585124 0.99754
vn -0.0543053 -0.0102107 0.998472
vn -0.0446904 0.081931 0.995636
vn -0.0257006 0.0866882 0.995904
vn -0.0144907 0.0632214 0.997894
vn -0.00124059 0.0618635 0.998084
vn -0.029378 0.0462309 0.998499
vn -0.044671 0.0427083 0.998088
vn -0.0474883 0.0289991 0.998451
vn -0.059952 0.0599431 0.9964
vn -0.0564496 0.0180531 0.998242
vn -0.0734854 0.0309628 0.996816
vn -0.0741877 0.0553249 0.995708
vn -0.0627524 0.0764951 0.995093
vn -0.0902043 0.0240075 0.995634
vn 0.0161137 -0.0906391 0.995753
vn -0.00869609 -0.0919151 0.995729
vn 0.0913696 -0.0205979 0.995604
vn 0.0974459 0.0105246 0.995185
vn 0.0541915 0.0173666 0.99838
vn -0.010185 0.0489322 0.99875
vn -0.0275087 0.0663916 0.997414
vn -0.0858543 0.0441664 0.995328
vn -0.044378 -0.0813347 0.995698
vn -0.0346503 -0.0137299 0.999305
vn -0.026918 -0.0270148 0.999273
vn -0.0139015 -0.0344686 0.999309
vn -0.000511573 -0.0381735 0.999271
vn 0.0144707 -0.0346012 0.999296
vn 0.0262261 -0.0252257 0.999338
vn 0.0331568 -0.0139227 0.999353
vn 0.0381717 -0.000670658 0.999271
vn 0.0351224 0.0149285 0.999272
vn 0.0257046 0.026054 0.99933
vn 0.0133528 0.0336502 0.999345
vn -1.84364e-06 0.03666 0.999328
vn -0.0147047 0.0334409 0.999333
vn -0.0242995 0.0259006 0.999369
vn -0.0342061 0.0128356 0.999332
vn -0.035385 0.000821506 0.999373
vn 0.00990883 -0.00612388 0.999932
vn 0.0221769 0.00568555 0.999738
vn 0.0242587 -0.0156992 0.999583
vn 0.00444893 -0.0242785 0.999695
vn -0.0158192 -0.00287412 0.999871
vn 0.0349758 0.00662397 0.999366
vn 0.0318495 -0.0051338 0.999479
vn 0.0256731 0.0161297 0.99954
vn 0.00742361 0.0150555 0.999859
vn 0.0164928 0.0240065 0.999576
vn 0.00424583 0.0298098 0.999547
vn -0.0145963 0.0183438 0.999725
vn -0.00278612 0.0200876 0.999794
vn -0.00643989 0.00710777 0.999954
vn -0.0105009 0.0301968 0.999489
vn 0.00748533 0.00464633 0.999961
vn -0.00254253 -0.00485721 0.999985
vn -0.0108235 -0.0179186 0.999781
vn 0.0177932 -0.0269096 0.99948
vn 0.0197782 -0.00452833 0.999794
vn 0.0122275 -0.0166087 0.999787
vn 0.00705346 -0.0345165 0.999379
vn -0.00493377 -0.0310116 0.999507
vn -0.0296802 -0.00487545 0.999548
vn -0.0250989 0.00817817 0.999652
vn -0.000953588 -0.015113 0.999885
vn -0.0180554 -0.0277696 0.999451
vn -0.0256865 -0.0172436 0.999521
vn -0.0277012 0.0196076 0.999424
# 176 vertex normals
vt 2000 -1000 0
vt 1980.69 -1195.09 0
vt 1923.77 -1382.65 0
vt 1831.38 -1555.54 0
vt 1707.17 -1707.17 0
vt 1555.54 -1831.38 0
vt 1382.65 -1923.77 0
vt 1195.09 -1980.68 0
vt 1000 -2000 0
vt 804.907 -1980.69 0
vt 617.35 -1923.77 0
vt 444.459 -1831.38 0
vt 292.825 -1707.17 0
vt 168.615 -1555.54 0
vt 76.2148 -1382.66 0
vt 19.3152 -1195.09 0
vt 0 -1000 0
vt 19.3154 -804.908 0
vt 76.234 -617.35 0
vt 168.616 -444.459 0
vt 292.85 -292.849 0
vt 444.46 -168.614 0
vt 617.344 -76.2146 0
vt 804.909 -19.3151 0
vt 1000 0 0
vt 1195.09 -19.3154 0
vt 1382.66 -76.2152 0
vt 1555.54 -168.615 0
vt 1707.18 -292.825 0
vt 1831.39 -444.459 0
vt 1923.78 -617.343 0
vt 1980.69 -804.907 0
vt 1192.16 -537.597 0
vt 1354.42 -645.903 0
vt 1462.72 -808.162 0
vt 1500.83 -999.49 0
vt 1462.71 -1190.82 0
vt 1354.42 -1353.08 0
vt 1192.16 -1461.38 0
vt 1000.83 -1499.49 0
vt 809.505 -1461.37 0
vt 647.242 -1353.08 0
vt 538.946 -1190.81 0
vt 500.829 -999.49 0
vt 538.946 -808.166 0
vt 647.242 -645.902 0
vt 809.501 -537.597 0
vt 1000.83 -499.49 0
vt 417.946 -1477.99 0
vt 279.342 -1218.62 0
vt 781.37 -1720.8 0
vt 279.289 -781.387 0
vt 417.733 -521.887 0
vt 644.784 -335.493 0
vt 926.237 -249.868 0
vt 1144.47 -1721.31 0
vt 1409.53 -1611.34 0
vt 1612.53 -1408.07 0
vt 1722.12 -1143.04 0
vt 1409.29 -388.004 0
vt 1612.28 -591.06 0
vt 1722.02 -855.976 0
vt 464.558 -1652.19 0
vt 592.08 -1524.73 0
vt 623.559 -1683.75 0
vt 678.283 -1805.25 0
vt 730.234 -1584.02 0
vt 885.01 -1604.11 0
vt 962.841 -1777.6 0
vt 1024.2 -1641.78 0
vt 1146.61 -1587.37 0
vt 1272.87 -1656.37 0
vt 1271.54 -1813.15 0
vt 491.36 -1339.84 0
vt 412.112 -1232.43 0
vt 360.904 -1079.56 0
vt 332.038 -1357.18 0
vt 199.963 -1328.11 0
vt 282.819 -1483.13 0
vt 361.913 -919.028 0
vt 175.105 -1064.04 0
vt 350.726 -1592.34 0
vt 210.235 -916.46 0
vt 144.538 -740.494 0
vt 259.496 -604.148 0
vt 308.868 -432.68 0
vt 467.13 -350.574 0
vt 491.706 -659.367 0
vt 363.595 -682.248 0
vt 755.102 -192.727 0
vt 578.472 -211.42 0
vt 660.843 -490.58 0
vt 533.66 -462.536 0
vt 912.385 -109.957 0
vt 1085.43 -163.466 0
vt 881.4 -399.222 0
vt 775.231 -322.286 0
vt 1553.52 -1674.26 0
vt 1658.79 -1557.96 0
vt 1520.03 -1518.7 0
vt 1330.65 -1493.16 0
vt 1769.45 -1411.32 0
vt 1821.86 -1263.76 0
vt 1678.87 -1280.33 0
vt 1494.41 -1329.24 0
vt 1868.23 -1085.46 0
vt 1860.43 -929.113 0
vt 1734.7 -999.502 0
vt 1582.91 -1115.3 0
vt 1411.17 -230.812 0
vt 1251.78 -180.276 0
vt 1150.9 -347.078 0
vt 1013.09 -357.35 0
vt 1330.51 -506.029 0
vt 1469.68 -554.217 0
vt 1512.6 -682.461 0
vt 1580.44 -419.891 0
vt 1600.14 -789.944 0
vt 1728.79 -697.984 0
vt 1700.64 -486.083 0
vt 1580.32 -293.032 0
vt 1841.79 -781.967 0
vt 841.699 -1846.35 0
vt 1085.77 -1871.37 0
vt 150.582 -1193.01 0
vt 85.9557 -910.008 0
vt 411.219 -800.982 0
vt 1108.97 -455.884 0
vt 1288.22 -316.222 0
vt 1794.75 -581.401 0
vt 1417.24 -1764.69 0
vt 1462.71 -1190.82 0
vt 1354.42 -1353.08 0
vt 1192.16 -1461.38 0
vt 1000.83 -1499.49 0
vt 809.505 -1461.37 0
vt 647.242 -1353.08 0
vt 538.946 -1190.81 0
vt 500.829 -999.49 0
vt 538.946 -808.166 0
vt 647.242 -645.902 0
vt 809.501 -537.597 0
vt 1000.83 -499.49 0
vt 1192.16 -537.597 0
vt 1354.42 -645.903 0
vt 1462.72 -808.162 0
vt 1500.83 -999.49 0
vt 880.741 -1079.97 0
vt 711.488 -942 0
vt 725.476 -1183.59 0
vt 943.304 -1289.01 0
vt 1190.45 -1037.11 0
vt 591.807 -918.156 0
vt 627.769 -1049.93 0
vt 675.525 -810.225 0
vt 927.107 -812.36 0
vt 802.228 -703.822 0
vt 955.251 -653.871 0
vt 1157.26 -771.487 0
vt 1034.69 -749.721 0
vt 1062.22 -920.705 0
vt 1116.36 -645.835 0
vt 927.527 -950.254 0
vt 1021.64 -1057.49 0
vt 1127.16 -1222.21 0
vt 789.343 -1315.87 0
vt 755.633 -1060.65 0
vt 850.563 -1202.88 0
vt 919.473 -1408.62 0
vt 1051.07 -1372.66 0
vt 1351.82 -1069.26 0
vt 1302.78 -894.328 0
vt 1008.51 -1182.06 0
vt 1218.87 -1325.7 0
vt 1312.46 -1211.54 0
vt 1340.36 -772.56 0
# 176 texture coords
s 1
g trampoline-1
usemtl Default Fabric_front
f 12/12/12 13/13/13 63/63/63
f 68/68/68 40/40/40 70/70/70
f 9/9/9 124/124/124 8/8/8
f 49/49/49 77/77/77 74/74/74
f 14/14/14 78/78/78 79/79/79
f 71/71/71 40/40/40 39/39/39
f 71/71/71 72/72/72 56/56/56
f 125/125/125 16/16/16 81/81/81
f 79/79/79 49/49/49 82/82/82
f 70/70/70 69/69/69 68/68/68
f 42/42/42 64/64/64 74/74/74
f 68/68/68 41/41/41 40/40/40
f 51/51/51 68/68/68 69/69/69
f 41/41/41 68/68/68 67/67/67
f 125/125/125 78/78/78 15/15/15
f 75/75/75 74/74/74 77/77/77
f 63/63/63 49/49/49 64/64/64
f 46/46/46 45/45/45 88/88/88
f 47/47/47 46/46/46 92/92/92
f 66/66/66 12/12/12 65/65/65
f 69/69/69 123/123/123 51/51/51
f 50/50/50 76/76/76 75/75/75
f 18/18/18 19/19/19 84/84/84
f 17/17/17 81/81/81 16/16/16
f 52/52/52 84/84/84 85/85/85
f 8/8/8 73/73/73 7/7/7
f 86/86/86 20/20/20 21/21/21
f 21/21/21 87/87/87 86/86/86
f 102/102/102 3/3/3 4/4/4
f 39/39/39 38/38/38 101/101/101
f 44/44/44 80/80/80 127/127/127
f 98/98/98 5/5/5 6/6/6
f 22/22/22 23/23/23 91/91/91
f 76/76/76 43/43/43 75/75/75
f 48/48/48 47/47/47 96/96/96
f 93/93/93 46/46/46 88/88/88
f 90/90/90 91/91/91 23/23/23
f 24/24/24 25/25/25 94/94/94
f 37/37/37 36/36/36 109/109/109
f 106/106/106 1/1/1 2/2/2
f 97/97/97 47/47/47 92/92/92
f 88/88/88 127/127/127 89/89/89
f 24/24/24 90/90/90 23/23/23
f 38/38/38 37/37/37 105/105/105
f 69/69/69 70/70/70 56/56/56
f 56/56/56 70/70/70 71/71/71
f 71/71/71 70/70/70 40/40/40
f 124/124/124 9/9/9 69/69/69
f 67/67/67 68/68/68 51/51/51
f 6/6/6 131/131/131 98/98/98
f 74/74/74 43/43/43 42/42/42
f 101/101/101 72/72/72 71/71/71
f 100/100/100 101/101/101 38/38/38
f 83/83/83 81/81/81 126/126/126
f 131/131/131 73/73/73 72/72/72
f 86/86/86 87/87/87 53/53/53
f 98/98/98 100/100/100 99/99/99
f 66/66/66 10/10/10 11/11/11
f 65/65/65 67/67/67 51/51/51
f 106/106/106 2/2/2 103/103/103
f 104/104/104 105/105/105 37/37/37
f 42/42/42 41/41/41 64/64/64
f 64/64/64 65/65/65 63/63/63
f 104/104/104 103/103/103 102/102/102
f 63/63/63 65/65/65 12/12/12
f 99/99/99 102/102/102 4/4/4
f 65/65/65 51/51/51 66/66/66
f 32/32/32 107/107/107 122/122/122
f 69/69/69 9/9/9 123/123/123
f 84/84/84 19/19/19 85/85/85
f 110/110/110 27/27/27 28/28/28
f 95/95/95 26/26/26 111/111/111
f 60/60/60 129/129/129 110/110/110
f 95/95/95 25/25/25 26/26/26
f 114/114/114 60/60/60 115/115/115
f 95/95/95 94/94/94 25/25/25
f 115/115/115 116/116/116 34/34/34
f 128/128/128 33/33/33 48/48/48
f 119/119/119 118/118/118 61/61/61
f 107/107/107 106/106/106 108/108/108
f 11/11/11 12/12/12 66/66/66
f 119/119/119 130/130/130 122/122/122
f 60/60/60 110/110/110 121/121/121
f 115/115/115 60/60/60 117/117/117
f 122/122/122 130/130/130 31/31/31
f 117/117/117 29/29/29 120/120/120
f 62/62/62 36/36/36 118/118/118
f 108/108/108 109/109/109 36/36/36
f 66/66/66 123/123/123 10/10/10
f 116/116/116 61/61/61 118/118/118
f 65/65/65 64/64/64 67/67/67
f 82/82/82 63/63/63 13/13/13
f 67/67/67 64/64/64 41/41/41
f 34/34/34 33/33/33 114/114/114
f 72/72/72 73/73/73 56/56/56
f 57/57/57 72/72/72 101/101/101
f 56/56/56 73/73/73 124/124/124
f 6/6/6 7/7/7 131/131/131
f 74/74/74 75/75/75 43/43/43
f 74/74/74 64/64/64 49/49/49
f 43/43/43 76/76/76 44/44/44
f 50/50/50 75/75/75 77/77/77
f 80/80/80 44/44/44 76/76/76
f 80/80/80 83/83/83 52/52/52
f 77/77/77 78/78/78 50/50/50
f 77/77/77 79/79/79 78/78/78
f 50/50/50 78/78/78 125/125/125
f 78/78/78 14/14/14 15/15/15
f 14/14/14 82/82/82 13/13/13
f 77/77/77 49/49/49 79/79/79
f 44/44/44 127/127/127 45/45/45
f 76/76/76 81/81/81 83/83/83
f 76/76/76 50/50/50 81/81/81
f 76/76/76 83/83/83 80/80/80
f 82/82/82 49/49/49 63/63/63
f 82/82/82 14/14/14 79/79/79
f 83/83/83 84/84/84 52/52/52
f 126/126/126 17/17/17 18/18/18
f 18/18/18 84/84/84 126/126/126
f 89/89/89 52/52/52 85/85/85
f 85/85/85 86/86/86 53/53/53
f 85/85/85 19/19/19 20/20/20
f 86/86/86 85/85/85 20/20/20
f 87/87/87 93/93/93 53/53/53
f 87/87/87 91/91/91 54/54/54
f 87/87/87 21/21/21 22/22/22
f 46/46/46 93/93/93 92/92/92
f 85/85/85 53/53/53 89/89/89
f 80/80/80 52/52/52 127/127/127
f 89/89/89 53/53/53 88/88/88
f 90/90/90 97/97/97 54/54/54
f 90/90/90 94/94/94 55/55/55
f 91/91/91 87/87/87 22/22/22
f 91/91/91 90/90/90 54/54/54
f 47/47/47 97/97/97 96/96/96
f 87/87/87 54/54/54 93/93/93
f 93/93/93 88/88/88 53/53/53
f 93/93/93 54/54/54 92/92/92
f 94/94/94 90/90/90 24/24/24
f 55/55/55 94/94/94 95/95/95
f 113/113/113 96/96/96 55/55/55
f 111/111/111 110/110/110 129/129/129
f 128/128/128 48/48/48 113/113/113
f 90/90/90 55/55/55 97/97/97
f 97/97/97 92/92/92 54/54/54
f 97/97/97 55/55/55 96/96/96
f 98/98/98 99/99/99 5/5/5
f 98/98/98 131/131/131 57/57/57
f 99/99/99 4/4/4 5/5/5
f 99/99/99 100/100/100 58/58/58
f 58/58/58 100/100/100 105/105/105
f 100/100/100 98/98/98 57/57/57
f 39/39/39 101/101/101 71/71/71
f 101/101/101 100/100/100 57/57/57
f 102/102/102 103/103/103 3/3/3
f 102/102/102 99/99/99 58/58/58
f 103/103/103 2/2/2 3/3/3
f 103/103/103 104/104/104 59/59/59
f 59/59/59 104/104/104 109/109/109
f 104/104/104 102/102/102 58/58/58
f 105/105/105 100/100/100 38/38/38
f 105/105/105 104/104/104 58/58/58
f 106/106/106 107/107/107 1/1/1
f 106/106/106 103/103/103 59/59/59
f 107/107/107 32/32/32 1/1/1
f 107/107/107 108/108/108 62/62/62
f 108/108/108 36/36/36 62/62/62
f 108/108/108 106/106/106 59/59/59
f 109/109/109 104/104/104 37/37/37
f 109/109/109 108/108/108 59/59/59
f 110/110/110 111/111/111 27/27/27
f 60/60/60 121/121/121 117/117/117
f 111/111/111 26/26/26 27/27/27
f 95/95/95 111/111/111 112/112/112
f 55/55/55 95/95/95 113/113/113
f 33/33/33 112/112/112 114/114/114
f 113/113/113 48/48/48 96/96/96
f 113/113/113 95/95/95 112/112/112
f 114/114/114 115/115/115 34/34/34
f 60/60/60 114/114/114 129/129/129
f 34/34/34 116/116/116 35/35/35
f 61/61/61 115/115/115 117/117/117
f 116/116/116 118/118/118 35/35/35
f 115/115/115 61/61/61 116/116/116
f 117/117/117 120/120/120 61/61/61
f 117/117/117 121/121/121 29/29/29
f 118/118/118 36/36/36 35/35/35
f 62/62/62 118/118/118 119/119/119
f 119/119/119 122/122/122 62/62/62
f 30/30/30 130/130/130 120/120/120
f 61/61/61 130/130/130 119/119/119
f 120/120/120 29/29/29 30/30/30
f 28/28/28 29/29/29 121/121/121
f 121/121/121 110/110/110 28/28/28
f 122/122/122 107/107/107 62/62/62
f 122/122/122 31/31/31 32/32/32
f 123/123/123 66/66/66 51/51/51
f 123/123/123 9/9/9 10/10/10
f 124/124/124 73/73/73 8/8/8
f 69/69/69 56/56/56 124/124/124
f 16/16/16 125/125/125 15/15/15
f 81/81/81 50/50/50 125/125/125
f 126/126/126 81/81/81 17/17/17
f 126/126/126 84/84/84 83/83/83
f 127/127/127 88/88/88 45/45/45
f 127/127/127 52/52/52 89/89/89
f 112/112/112 33/33/33 128/128/128
f 128/128/128 113/113/113 112/112/112
f 112/112/112 111/111/111 129/129/129
f 129/129/129 114/114/114 112/112/112
f 130/130/130 30/30/30 31/31/31
f 130/130/130 61/61/61 120/120/120
f 131/131/131 72/72/72 57/57/57
f 131/131/131 7/7/7 73/73/73
usemtl Default Fabric_front
f 42/137/137 134/150/150 150/166/166
f 151/167/167 133/149/149 147/163/163
f 43/138/138 134/150/150 42/137/137
f 138/154/154 43/138/138 44/139/139
f 138/154/154 151/167/167 134/150/150
f 43/138/138 138/154/154 134/150/150
f 40/135/135 41/136/136 153/169/169
f 133/149/149 138/154/154 137/153/153
f 139/155/155 140/156/156 133/149/149
f 44/139/139 45/140/140 137/153/153
f 139/155/155 141/157/157 140/156/156
f 155/171/171 36/147/147 37/132/132
f 152/168/168 151/167/167 132/148/148
f 45/140/140 46/141/141 139/155/155
f 148/164/164 136/152/152 149/165/165
f 137/153/153 138/154/154 44/139/139
f 34/145/145 146/162/162 33/144/144
f 36/147/147 155/171/171 156/172/172
f 143/159/159 160/176/176 156/172/172
f 149/165/165 157/173/173 148/164/164
f 42/137/137 150/166/166 41/136/136
f 46/141/141 141/157/157 139/155/155
f 135/151/151 154/170/170 153/169/169
f 142/158/158 48/143/143 146/162/162
f 142/158/158 146/162/162 144/160/160
f 152/168/168 134/150/150 151/167/167
f 159/175/175 155/171/171 37/132/132
f 149/165/165 159/175/175 158/174/174
f 137/153/153 139/155/155 133/149/149
f 137/153/153 45/140/140 139/155/155
f 148/164/164 147/163/163 145/161/161
f 47/142/142 142/158/158 141/157/157
f 141/157/157 142/158/158 140/156/156
f 46/141/141 47/142/142 141/157/157
f 144/160/160 140/156/156 142/158/158
f 142/158/158 47/142/142 48/143/143
f 144/160/160 143/159/159 145/161/161
f 136/152/152 156/172/172 155/171/171
f 144/160/160 145/161/161 140/156/156
f 144/160/160 146/162/162 143/159/159
f 145/161/161 147/163/163 140/156/156
f 136/152/152 145/161/161 156/172/172
f 146/162/162 34/145/145 143/159/159
f 33/144/144 146/162/162 48/143/143
f 147/163/163 133/149/149 140/156/156
f 147/163/163 148/164/164 132/148/148
f 152/168/168 132/148/148 157/173/173
f 145/161/161 136/152/152 148/164/164
f 157/173/173 149/165/165 154/170/170
f 158/174/174 38/133/133 39/134/134
f 150/166/166 153/169/169 41/136/136
f 150/166/166 152/168/168 135/151/151
f 151/167/167 147/163/163 132/148/148
f 151/167/167 138/154/154 133/149/149
f 152/168/168 150/166/166 134/150/150
f 135/151/151 152/168/168 157/173/173
f 153/169/169 154/170/170 40/135/135
f 153/169/169 150/166/166 135/151/151
f 39/134/134 40/135/135 154/170/170
f 39/134/134 154/170/170 158/174/174
f 36/147/147 156/172/172 35/146/146
f 136/152/152 159/175/175 149/165/165
f 156/172/172 160/176/176 35/146/146
f 156/172/172 145/161/161 143/159/159
f 148/164/164 157/173/173 132/148/148
f 157/173/173 154/170/170 135/151/151
f 158/174/174 159/175/175 38/133/133
f 158/174/174 154/170/170 149/165/165
f 159/175/175 37/132/132 38/133/133
f 155/171/171 159/175/175 136/152/152
f 34/145/145 35/146/146 160/176/176
f 160/176/176 143/159/159 34/145/145
# 286 faces
# End of File
