####
#
# Obj File Generated by Style3D V9.1.797
#
####
mtllib trampoline_v93.mtl
v 0.924543 0.392435 0.546422
v 0.708103 0.716881 0.548802
v 0.383679 0.933326 0.546365
v 0.00109023 1.00985 0.543368
v -0.381478 0.933283 0.547004
v -0.705907 0.716844 0.549105
v -0.922386 0.392424 0.545991
v -0.998909 0.00984776 0.543368
v -0.922326 -0.372691 0.547657
v -0.705858 -0.697099 0.549467
v -0.381472 -0.913607 0.546617
v 0.00109212 -0.990151 0.543368
v 0.383687 -0.913635 0.546317
v 0.70809 -0.697136 0.549167
v 0.924572 -0.372728 0.54662
v 1.00109 0.00984965 0.543368
v 0.193467 -0.453076 0.508141
v 0.355926 -0.344657 0.50764
v 0.46435 -0.18222 0.508106
v 0.502525 0.00933222 0.507514
v 0.464325 0.200886 0.508046
v 0.355913 0.363336 0.507613
v 0.19347 0.47176 0.507978
v 0.00191663 0.509938 0.507463
v -0.189632 0.471747 0.508004
v -0.352083 0.363337 0.50754
v -0.460502 0.200888 0.507933
v -0.498693 0.00933187 0.507521
v -0.46051 -0.182217 0.50816
v -0.352103 -0.344665 0.507734
v -0.189652 -0.453088 0.508083
v 0.00190761 -0.491258 0.507559
v -0.63457 0.434547 0.525173
v -0.748812 0.158754 0.523785
v -0.423102 0.645556 0.526666
v -0.748497 -0.140025 0.524036
v -0.634248 -0.415626 0.525476
v -0.422867 -0.626485 0.525207
v -0.147344 -0.74061 0.524133
v -0.147439 0.759744 0.524897
v 0.151197 0.759418 0.524862
v 0.426724 0.64522 0.526487
v 0.637502 0.433945 0.526592
v 0.751719 0.158565 0.525235
v 0.151115 -0.740368 0.525204
v 0.426636 -0.626386 0.526806
v 0.751784 -0.139907 0.523803
v 0.637683 -0.415386 0.525408
v -0.118352 0.089929 0.497913
v -0.287841 -0.0482352 0.500582
v -0.273815 0.193686 0.501474
v -0.0556899 0.299258 0.500646
v 0.191808 0.0470127 0.498486
v -0.407647 -0.0721058 0.504417
v -0.371649 0.0598422 0.502897
v -0.323833 -0.18018 0.502945
v -0.071919 -0.178065 0.498531
v -0.19696 -0.286729 0.502407
v -0.0437319 -0.33675 0.502053
v 0.158567 -0.218986 0.50015
v 0.0358188 -0.240787 0.499622
v 0.0633934 -0.0695659 0.497262
v 0.117591 -0.344783 0.502763
v -0.0715007 -0.0399757 0.497281
v 0.0227548 0.067424 0.497094
v 0.128421 0.232369 0.499641
v -0.209847 0.326133 0.503025
v -0.243636 0.0705761 0.499592
v -0.148565 0.213015 0.49961
v -0.0795439 0.418999 0.50435
v 0.0522182 0.383005 0.502806
v 0.353377 0.0791983 0.502372
v 0.304289 -0.0959678 0.501125
v 0.0096047 0.192172 0.498341
v 0.220237 0.335975 0.503447
v 0.313961 0.221666 0.502875
v 0.34189 -0.217878 0.504185
# 77 vertices
vn -0.0791899 -0.0396784 0.99607
vn -0.0662417 -0.0659943 0.995619
vn -0.0401577 -0.0797799 0.996003
vn 0.000624278 -0.0833838 0.996517
vn 0.0412008 -0.0811074 0.995853
vn 0.0669236 -0.0703789 0.995273
vn 0.0834858 -0.0417652 0.995633
vn 0.0876993 0.00178407 0.996145
vn 0.0874097 0.0437898 0.99521
vn 0.072652 0.0709512 0.99483
vn 0.0423796 0.0848593 0.995491
vn -0.000786217 0.084267 0.996443
vn -0.0400157 0.0786291 0.9961
vn -0.0677407 0.0693384 0.995291
vn -0.0851479 0.0427336 0.995452
vn -0.085035 -0.00129499 0.996377
vn -0.027738 0.0613397 0.997732
vn -0.0464424 0.0490326 0.997717
vn -0.0566103 0.02583 0.998062
vn -0.0619687 -0.00172551 0.998077
vn -0.0613516 -0.0274056 0.99774
vn -0.0492479 -0.0488577 0.997591
vn -0.0275346 -0.0604585 0.997791
vn 2.10164e-07 -0.0634379 0.997986
vn 0.0276923 -0.0607271 0.99777
vn 0.0460162 -0.0488898 0.997744
vn 0.056518 -0.0253377 0.99808
vn 0.0595979 0.000768439 0.998222
vn 0.0568542 0.0258989 0.998047
vn 0.0458697 0.0452534 0.997922
vn 0.0253616 0.0569478 0.998055
vn -0.00146907 0.0623637 0.998052
vn 0.0652479 -0.0498014 0.996626
vn 0.0737595 -0.0180082 0.997114
vn 0.0472725 -0.0680053 0.996565
vn 0.0750323 0.0202521 0.996975
vn 0.0687 0.0487809 0.996444
vn 0.0488564 0.0672729 0.996538
vn 0.0173832 0.0742865 0.997085
vn 0.0195227 -0.0738781 0.997076
vn -0.018827 -0.073397 0.997125
vn -0.0481723 -0.0658759 0.996664
vn -0.0662303 -0.0476002 0.996668
vn -0.0733972 -0.020144 0.997099
vn -0.019915 0.0731047 0.997125
vn -0.0472274 0.0671102 0.996627
vn -0.0743894 0.0176407 0.997073
vn -0.0661127 0.0499891 0.996559
vn -0.0376893 -0.0153071 0.999172
vn -0.0285348 -0.0282845 0.999193
vn -0.0156007 -0.0379728 0.999157
vn -0.000420927 -0.039844 0.999206
vn 0.0166962 -0.0386228 0.999114
vn 0.0274203 -0.0266926 0.999268
vn 0.035727 -0.0152875 0.999245
vn 0.0396318 -3.51844e-05 0.999214
vn 0.0395482 0.0174377 0.999066
vn 0.0272999 0.027704 0.999243
vn 0.0152065 0.0360796 0.999233
vn 0.000138879 0.0381324 0.999273
vn -0.0166247 0.0379675 0.999141
vn -0.0257373 0.0270943 0.999301
vn -0.03757 0.0148047 0.999184
vn -0.0368913 0.000579464 0.999319
vn 0.00987935 -0.0063731 0.999931
vn 0.0228034 0.00609674 0.999721
vn 0.0251744 -0.0161569 0.999553
vn 0.00489672 -0.0244645 0.999689
vn -0.016051 -0.00344363 0.999865
vn 0.0370812 0.00895828 0.999272
vn 0.0329401 -0.00559995 0.999442
vn 0.0280258 0.017278 0.999458
vn 0.00790346 0.0154691 0.999849
vn 0.0175262 0.0260015 0.999508
vn 0.00531939 0.0309515 0.999507
vn -0.0149995 0.0192024 0.999703
vn -0.00315255 0.0207593 0.99978
vn -0.00636857 0.00699751 0.999955
vn -0.0116241 0.0320594 0.999418
vn 0.00798496 0.00410576 0.99996
vn -0.00214863 -0.00527135 0.999984
vn -0.0111081 -0.0179485 0.999777
vn 0.0182294 -0.0287467 0.999421
vn 0.0195809 -0.00445098 0.999798
vn 0.0120649 -0.0166634 0.999788
vn 0.00898654 -0.0362896 0.999301
vn -0.00551954 -0.0320395 0.999471
vn -0.0307333 -0.00621749 0.999508
vn -0.026281 0.00909807 0.999613
vn -0.000587062 -0.0152143 0.999884
vn -0.0187767 -0.0295963 0.999386
vn -0.0275121 -0.0175911 0.999467
vn -0.030207 0.0202125 0.999339
# 93 vertex normals
vt 1923.77 -1382.65 0
vt 1707.17 -1707.17 0
vt 1382.65 -1923.77 0
vt 1000 -2000 0
vt 617.35 -1923.77 0
vt 292.825 -1707.17 0
vt 76.2148 -1382.66 0
vt 0 -1000 0
vt 76.234 -617.35 0
vt 292.85 -292.849 0
vt 617.344 -76.2146 0
vt 1000 0 0
vt 1382.66 -76.2152 0
vt 1707.18 -292.825 0
vt 1923.78 -617.343 0
vt 2000 -1000 0
vt 1192.16 -537.597 0
vt 1354.42 -645.903 0
vt 1462.72 -808.162 0
vt 1500.83 -999.49 0
vt 1462.71 -1190.82 0
vt 1354.42 -1353.08 0
vt 1192.16 -1461.38 0
vt 1000.83 -1499.49 0
vt 809.505 -1461.37 0
vt 647.242 -1353.08 0
vt 538.946 -1190.81 0
vt 500.829 -999.49 0
vt 538.946 -808.166 0
vt 647.242 -645.902 0
vt 809.501 -537.597 0
vt 1000.83 -499.49 0
vt 364.657 -1424.41 0
vt 250.566 -1148.81 0
vt 576.037 -1635.48 0
vt 250.896 -850.238 0
vt 365.011 -574.809 0
vt 576.349 -363.995 0
vt 851.677 -249.992 0
vt 851.562 -1749.5 0
vt 1150.02 -1749.17 0
vt 1425.4 -1635.12 0
vt 1636.18 -1423.86 0
vt 1750.26 -1148.64 0
vt 1149.95 -250.152 0
vt 1425.32 -363.982 0
vt 1750.21 -850.362 0
vt 1636.26 -575.051 0
vt 1462.71 -1190.82 0
vt 1354.42 -1353.08 0
vt 1192.16 -1461.38 0
vt 1000.83 -1499.49 0
vt 809.505 -1461.37 0
vt 647.242 -1353.08 0
vt 538.946 -1190.81 0
vt 500.829 -999.49 0
vt 538.946 -808.166 0
vt 647.242 -645.902 0
vt 809.501 -537.597 0
vt 1000.83 -499.49 0
vt 1192.16 -537.597 0
vt 1354.42 -645.903 0
vt 1462.72 -808.162 0
vt 1500.83 -999.49 0
vt 880.741 -1079.97 0
vt 711.488 -942 0
vt 725.476 -1183.59 0
vt 943.304 -1289.01 0
vt 1190.45 -1037.11 0
vt 591.807 -918.156 0
vt 627.769 -1049.93 0
vt 675.525 -810.225 0
vt 927.107 -812.36 0
vt 802.228 -703.822 0
vt 955.251 -653.871 0
vt 1157.26 -771.487 0
vt 1034.69 -749.721 0
vt 1062.22 -920.705 0
vt 1116.36 -645.835 0
vt 927.527 -950.254 0
vt 1021.64 -1057.49 0
vt 1127.16 -1222.21 0
vt 789.343 -1315.87 0
vt 755.633 -1060.65 0
vt 850.563 -1202.88 0
vt 919.473 -1408.62 0
vt 1051.07 -1372.66 0
vt 1351.82 -1069.26 0
vt 1302.78 -894.328 0
vt 1008.51 -1182.06 0
vt 1218.87 -1325.7 0
vt 1312.46 -1211.54 0
vt 1340.36 -772.56 0
# 93 texture coords
s 1
g trampoline-1
usemtl Default Fabric_front
f 27/27/27 33/33/33 34/34/34
f 47/47/47 44/44/44 20/20/20
f 36/36/36 28/28/28 34/34/34
f 34/34/34 28/28/28 27/27/27
f 26/26/26 33/33/33 27/27/27
f 15/15/15 16/16/16 47/47/47
f 40/40/40 41/41/41 4/4/4
f 13/13/13 14/14/14 46/46/46
f 34/34/34 33/33/33 7/7/7
f 35/35/35 26/26/26 25/25/25
f 37/37/37 36/36/36 9/9/9
f 5/5/5 35/35/35 40/40/40
f 46/46/46 45/45/45 13/13/13
f 36/36/36 34/34/34 8/8/8
f 36/36/36 37/37/37 29/29/29
f 7/7/7 8/8/8 34/34/34
f 4/4/4 5/5/5 40/40/40
f 29/29/29 37/37/37 30/30/30
f 37/37/37 38/38/38 30/30/30
f 36/36/36 29/29/29 28/28/28
f 38/38/38 39/39/39 31/31/31
f 10/10/10 11/11/11 38/38/38
f 3/3/3 4/4/4 41/41/41
f 31/31/31 39/39/39 32/32/32
f 45/45/45 32/32/32 39/39/39
f 38/38/38 31/31/31 30/30/30
f 11/11/11 12/12/12 39/39/39
f 41/41/41 40/40/40 24/24/24
f 24/24/24 40/40/40 25/25/25
f 40/40/40 35/35/35 25/25/25
f 23/23/23 41/41/41 24/24/24
f 3/3/3 41/41/41 42/42/42
f 8/8/8 9/9/9 36/36/36
f 23/23/23 22/22/22 42/42/42
f 43/43/43 2/2/2 42/42/42
f 33/33/33 35/35/35 6/6/6
f 22/22/22 21/21/21 43/43/43
f 16/16/16 1/1/1 44/44/44
f 20/20/20 44/44/44 21/21/21
f 16/16/16 44/44/44 47/47/47
f 44/44/44 43/43/43 21/21/21
f 1/1/1 43/43/43 44/44/44
f 12/12/12 13/13/13 45/45/45
f 38/38/38 37/37/37 10/10/10
f 18/18/18 17/17/17 46/46/46
f 5/5/5 6/6/6 35/35/35
f 45/45/45 17/17/17 32/32/32
f 46/46/46 17/17/17 45/45/45
f 46/46/46 48/48/48 18/18/18
f 39/39/39 38/38/38 11/11/11
f 47/47/47 20/20/20 19/19/19
f 9/9/9 10/10/10 37/37/37
f 43/43/43 42/42/42 22/22/22
f 19/19/19 18/18/18 48/48/48
f 48/48/48 15/15/15 47/47/47
f 47/47/47 19/19/19 48/48/48
f 35/35/35 33/33/33 26/26/26
f 2/2/2 3/3/3 42/42/42
f 1/1/1 2/2/2 43/43/43
f 6/6/6 7/7/7 33/33/33
f 45/45/45 39/39/39 12/12/12
f 42/42/42 41/41/41 23/23/23
f 14/14/14 15/15/15 48/48/48
f 48/48/48 46/46/46 14/14/14
usemtl Default Fabric_front
f 26/54/54 51/67/67 67/83/83
f 68/84/84 50/66/66 64/80/80
f 27/55/55 51/67/67 26/54/54
f 55/71/71 27/55/55 28/56/56
f 55/71/71 68/84/84 51/67/67
f 27/55/55 55/71/71 51/67/67
f 24/52/52 25/53/53 70/86/86
f 50/66/66 55/71/71 54/70/70
f 56/72/72 57/73/73 50/66/66
f 28/56/56 29/57/57 54/70/70
f 56/72/72 58/74/74 57/73/73
f 72/88/88 20/64/64 21/49/49
f 69/85/85 68/84/84 49/65/65
f 29/57/57 30/58/58 56/72/72
f 65/81/81 53/69/69 66/82/82
f 54/70/70 55/71/71 28/56/56
f 18/62/62 63/79/79 17/61/61
f 20/64/64 72/88/88 73/89/89
f 60/76/76 77/93/93 73/89/89
f 66/82/82 74/90/90 65/81/81
f 26/54/54 67/83/83 25/53/53
f 30/58/58 58/74/74 56/72/72
f 52/68/68 71/87/87 70/86/86
f 59/75/75 32/60/60 63/79/79
f 59/75/75 63/79/79 61/77/77
f 69/85/85 51/67/67 68/84/84
f 76/92/92 72/88/88 21/49/49
f 66/82/82 76/92/92 75/91/91
f 54/70/70 56/72/72 50/66/66
f 54/70/70 29/57/57 56/72/72
f 65/81/81 64/80/80 62/78/78
f 31/59/59 59/75/75 58/74/74
f 58/74/74 59/75/75 57/73/73
f 30/58/58 31/59/59 58/74/74
f 61/77/77 57/73/73 59/75/75
f 59/75/75 31/59/59 32/60/60
f 61/77/77 60/76/76 62/78/78
f 53/69/69 73/89/89 72/88/88
f 61/77/77 62/78/78 57/73/73
f 61/77/77 63/79/79 60/76/76
f 62/78/78 64/80/80 57/73/73
f 53/69/69 62/78/78 73/89/89
f 63/79/79 18/62/62 60/76/76
f 17/61/61 63/79/79 32/60/60
f 64/80/80 50/66/66 57/73/73
f 64/80/80 65/81/81 49/65/65
f 69/85/85 49/65/65 74/90/90
f 62/78/78 53/69/69 65/81/81
f 74/90/90 66/82/82 71/87/87
f 75/91/91 22/50/50 23/51/51
f 67/83/83 70/86/86 25/53/53
f 67/83/83 69/85/85 52/68/68
f 68/84/84 64/80/80 49/65/65
f 68/84/84 55/71/71 50/66/66
f 69/85/85 67/83/83 51/67/67
f 52/68/68 69/85/85 74/90/90
f 70/86/86 71/87/87 24/52/52
f 70/86/86 67/83/83 52/68/68
f 23/51/51 24/52/52 71/87/87
f 23/51/51 71/87/87 75/91/91
f 20/64/64 73/89/89 19/63/63
f 53/69/69 76/92/92 66/82/82
f 73/89/89 77/93/93 19/63/63
f 73/89/89 62/78/78 60/76/76
f 65/81/81 74/90/90 49/65/65
f 74/90/90 71/87/87 52/68/68
f 75/91/91 76/92/92 22/50/50
f 75/91/91 71/87/87 66/82/82
f 76/92/92 21/49/49 22/50/50
f 72/88/88 76/92/92 53/69/69
f 18/62/62 19/63/63 77/93/93
f 77/93/93 60/76/76 18/62/62
# 136 faces
# End of File
